<?xml version="1.0" encoding="iso-8859-1"?>
<!-- Generator: Adobe Illustrator 15.1.0, SVG Export Plug-In . SVG Version: 6.00 Build 0)  -->
<!DOCTYPE svg PUBLIC "-//W3C//DTD SVG 1.1//EN" "http://www.w3.org/Graphics/SVG/1.1/DTD/svg11.dtd">
<svg version="1.1" id="Layer_1" xmlns="http://www.w3.org/2000/svg" xmlns:xlink="http://www.w3.org/1999/xlink" x="0px" y="0px"
	 width="128px" height="128px" viewBox="0 0 128 128" style="enable-background:new 0 0 128 128;" xml:space="preserve">
<g>
	<circle style="fill:#4AB8A1;" cx="64" cy="64" r="64"/>
	<g>
		<g>
			<defs>
				<circle id="SVGID_1_" cx="64" cy="64" r="64"/>
			</defs>
			<clipPath id="SVGID_2_">
				<use xlink:href="#SVGID_1_"  style="overflow:visible;"/>
			</clipPath>
			<g style="clip-path:url(#SVGID_2_);">
				<path style="fill:#2995CC;" d="M109.877,118c-4.578-23-38.912-21-46.924-21s-42.346-2-46.924,21s18.313,31,18.313,31h28.611
					h28.611C91.564,149,114.455,141,109.877,118z"/>
				<path style="fill:#C23527;" d="M116.788,115c-5.253-23-44.644-21-53.835-21s-48.582-2-53.834,21
					c-4.588,20.09,14.865,28.734,19.861,30.602L28.863,118c3.326-23,28.27-21,34.09-21s30.764-2,34.09,21v27.557
					C102.209,143.605,121.343,134.945,116.788,115z"/>
				<path style="fill:#C23527;" d="M81,96.418H61.917H42.834c0,0-7.084,2.5-7.168,5.833c6.834-2.417,16.751,0.917,16.751,0.917h9.5
					h9.5c0,0,9.917-3.334,16.751-0.917C88.084,98.918,81,96.418,81,96.418z"/>
				<path style="fill:#E6CBC3;" d="M75.371,95.563h0.005l-3.423-10.646l-9-0.666l-9,0.666l-3.424,10.646h0.006
					c-0.051,0.146-0.082,0.295-0.082,0.443c0,2.206,5.597,3.993,12.5,3.993c6.902,0,12.5-1.787,12.5-3.993
					C75.453,95.857,75.422,95.709,75.371,95.563z"/>
				<path style="fill:#D9BFB8;" d="M75.371,95.563h0.005l-3.423-10.646l-9-0.666l-1.75,0.129l7.25,0.537l3.423,10.646h-0.005
					c0.051,0.146,0.082,0.295,0.082,0.443c0,2.016-4.678,3.678-10.75,3.95c0.572,0.024,1.154,0.043,1.75,0.043
					c6.902,0,12.5-1.787,12.5-3.993C75.453,95.857,75.422,95.709,75.371,95.563z"/>
				<path style="fill:#FFE1D9;" d="M88.953,42V31.598c0-8.113-5.771-14.598-26-14.598s-26,6.484-26,14.598V42c0,0-4,0.295-4,3
					v11.068C32.953,58.773,34,61,37,61c0,2,0,11,0,15c1,12,14.495,14,25.953,14s24.953-2,25.953-14c0-4,0-13,0-15
					c3,0,4.047-2.227,4.047-4.932V45C92.953,42.295,88.953,42,88.953,42z"/>
				<path style="fill:#F2D6CE;" d="M62.953,17c-0.686,0-1.35,0.009-2,0.023c18.609,0.418,24,6.734,24,14.574V42l-0.047,19
					c0,2,0,11,0,15c-0.942,11.309-12.979,13.734-23.953,13.979c0.672,0.015,1.34,0.021,2,0.021c11.458,0,24.953-2,25.953-14
					c0-4,0-13,0-15l0.047-19V31.598C88.953,23.484,83.184,17,62.953,17z"/>
				<path style="fill:#CC584C;" d="M62.953,17c-20.229,0-26,6.484-26,14.598V42v11c0.926-4.631,1.57-17.83,7.516-22.141
					c0.844,5.453,13.906,7.203,21.156,4.453C76.613,31.145,80,36.375,77.813,41.875c2.668-0.575,6.412-4.186,5.994-8.45
					c3.769,5.61,4.362,15.654,5.146,19.575V42V31.598C88.953,23.484,83.184,17,62.953,17z"/>
				<path style="fill:#BF5347;" d="M44.25,29.042c-3.791,2.791-6.27,8.024-7.297,12.271V42v11
					c0.842-4.211,1.464-16.583,7.589-22.141C44.275,30.424,44.327,29.539,44.25,29.042z"/>
				<path style="fill:#BF5347;" d="M63.625,35.313c-2.012,0.764-4.471,1.179-6.99,1.267c3.193,0.106,6.449-0.302,8.99-1.267
					c2.301-0.873,4.25-1.313,5.902-1.445C69.542,33.666,66.936,34.059,63.625,35.313z"/>
				<path style="fill:#BF5347;" d="M62.953,17c-0.342,0-0.667,0.007-1,0.01c19.412,0.215,25,6.611,25,14.588v9.748
					c1.107,4.565,1.521,9.256,2,11.654V42V31.598C88.953,23.484,83.184,17,62.953,17z"/>
				<path style="fill:#BF5347;" d="M82.641,31.203c0.303,3.074-2.396,8.023-4.459,9.525c-0.098,0.379-0.216,0.762-0.369,1.146
					c2.095-0.375,6.313-3.313,6.021-8.422C83.373,32.344,83.257,32.121,82.641,31.203z"/>
				<polygon style="fill:#C23527;" points="80.833,112.167 64,112.167 47.167,112.167 41.084,119.001 58.25,142.667 64,142.667 
					69.75,142.667 86.916,119.001 				"/>
				<polygon style="fill:#FFD464;" points="60.29,138.667 46.211,119.257 48.961,116.167 79.038,116.167 81.789,119.257 
					67.71,138.667 				"/>
			</g>
		</g>
	</g>
	<g>
		<g>
			<ellipse style="fill:#F5F5F5;" cx="53" cy="50" rx="4" ry="3"/>
			<circle style="fill:#2179A6;" cx="53" cy="50" r="2"/>
		</g>
		<g>
			<ellipse style="fill:#F5F5F5;" cx="73" cy="50" rx="4" ry="3"/>
			<circle style="fill:#2179A6;" cx="73" cy="50" r="2"/>
		</g>
	</g>
</g>
</svg>
