<?xml version="1.0" encoding="UTF-8" standalone="no"?>
<!-- Created with Inkscape (http://www.inkscape.org/) -->

<svg
   xmlns:dc="http://purl.org/dc/elements/1.1/"
   xmlns:cc="http://creativecommons.org/ns#"
   xmlns:rdf="http://www.w3.org/1999/02/22-rdf-syntax-ns#"
   xmlns:svg="http://www.w3.org/2000/svg"
   xmlns="http://www.w3.org/2000/svg"
   xmlns:sodipodi="http://sodipodi.sourceforge.net/DTD/sodipodi-0.dtd"
   xmlns:inkscape="http://www.inkscape.org/namespaces/inkscape"
   width="410"
   height="410"
   id="svg27183"
   version="1.1"
   inkscape:version="0.48.4 r9939"
   sodipodi:docname="employee.svg">
  <defs
     id="defs27185" />
  <sodipodi:namedview
     id="base"
     pagecolor="#ffffff"
     bordercolor="#666666"
     borderopacity="1.0"
     inkscape:pageopacity="0.0"
     inkscape:pageshadow="2"
     inkscape:zoom="1"
     inkscape:cx="120.07145"
     inkscape:cy="207.65555"
     inkscape:document-units="px"
     inkscape:current-layer="layer1"
     showgrid="false"
     inkscape:window-width="1315"
     inkscape:window-height="744"
     inkscape:window-x="51"
     inkscape:window-y="24"
     inkscape:window-maximized="1" />
  <metadata
     id="metadata27188">
    <rdf:RDF>
      <cc:Work
         rdf:about="">
        <dc:format>image/svg+xml</dc:format>
        <dc:type
           rdf:resource="http://purl.org/dc/dcmitype/StillImage" />
        <dc:title />
      </cc:Work>
    </rdf:RDF>
  </metadata>
  <g
     inkscape:label="Layer 1"
     inkscape:groupmode="layer"
     id="layer1"
     transform="translate(0,-642.36218)">
    <path
       sodipodi:nodetypes="sssscccccsssssssscsssscsssssssssssssssssccccsscscscccsscccsssssssssssscssssscsccsssssssssssssscssssscccssssssscssssssssssscccssssssssssssscsscssscsscssscssssssscs"
       inkscape:connector-curvature="0"
       id="path3828"
       d="m 159.36088,1045.3046 c 4.84995,-2.3769 8.53406,-6.5916 10.05901,-11.5078 1.08304,-3.4915 1.1451,-5.4881 1.1455,-36.88242 2.3e-4,-18.255 0.1739,-51.4216 0.38585,-73.7035 l 0.38534,-40.5125 3.38107,0 3.381,0 0.15373,75.362 0.15366,75.36202 1.38226,2.7831 c 1.92823,3.8826 5.89464,7.7615 9.81591,9.5995 2.78726,1.3063 4.1178,1.5572 8.25948,1.5572 4.21546,0 5.4145,-0.2345 8.20393,-1.6044 3.85258,-1.8919 8.21324,-6.3348 9.98798,-10.1764 1.24608,-2.6973 1.27134,-3.3218 1.62753,-40.20302 0.19898,-20.6048 0.42843,-71.3108 0.5098,-112.68 0.0814,-41.36927 0.31059,-80.05221 0.5094,-85.9621 l 0.36145,-10.74526 2.21174,4.26314 c 4.47656,8.62884 8.03335,22.13076 9.96547,37.82929 0.49025,3.98365 0.89136,7.60521 0.89136,8.04791 0,0.844 4.20552,-2.86213 16.19791,-14.27447 l 7.19518,-6.84711 -1.57187,-7.49816 c -3.75285,-17.90294 -10.49738,-33.20303 -19.17002,-43.48734 -3.15163,-3.73731 -10.14148,-9.34823 -14.18704,-11.3883 -7.8466,-3.95681 -7.50298,-3.92224 -43.68827,-4.38969 -37.36595,-0.48266 -37.13616,-0.50272 -46.71063,4.07973 -20.41673,9.77163 -32.959329,35.23549 -37.75145,76.64243 -2.374831,20.52055 -2.301627,57.59403 0.124636,63.07883 1.188873,2.6877 4.533649,6.0361 6.945396,6.9531 2.358198,0.8965 7.830708,0.6065 10.376578,-0.5499 2.47455,-1.1241 5.19683,-3.938 6.21666,-6.4262 0.38803,-0.9467 0.64067,-10.8525 0.69713,-27.3315 0.0797,-23.25698 0.21813,-26.77788 1.38249,-35.1399 2.62336,-18.84178 5.69852,-30.34014 10.68511,-39.95285 1.29036,-2.48732 2.43672,-4.43187 2.54741,-4.32117 0.11075,0.11077 -0.006,54.81216 -0.25939,121.55872 -0.27064,71.2679 -0.24596,122.54192 0.0598,124.22742 2.3502,12.9553 16.32694,20.0283 28.13887,14.2396 z m 7.59595,-188.42452 -7.38342,-9.50006 4.4793,-32.3164 4.4793,-32.31634 1.45209,0.45026 c 1.92817,0.5979 8.01563,0.57455 10.01924,-0.0384 1.34145,-0.41035 1.60118,-0.31573 1.62193,0.59076 0.0131,0.59366 1.93143,15.17887 4.26186,32.41148 l 4.23712,31.33208 -7.53864,9.47092 c -4.14625,5.209 -7.69767,9.4584 -7.89197,9.4433 -0.19435,-0.015 -3.67588,-4.3026 -7.73681,-9.5276 z m 2.73685,-78.9821 c -4.06562,-1.83681 -4.02585,-1.68172 -2.21019,-8.62092 l 1.62936,-6.22758 6.1342,-5.2e-4 6.1342,-5.1e-4 1.34106,6.0414 c 0.73753,3.32276 1.16115,6.33225 0.94142,6.68776 -0.21972,0.35553 -1.41677,1.16537 -2.66022,1.79975 -2.67907,1.36674 -8.62144,1.53524 -11.30983,0.32062 z m 99.12063,96.5849 c 25.34709,-14.4216 46.79835,-26.87982 47.66943,-27.68496 3.55376,-3.2848 3.75857,-10.61045 0.48277,-17.26456 -4.10471,-8.33791 -12.77141,-14.00066 -18.24352,-11.92015 -1.51146,0.57467 -72.28761,48.40877 -74.67953,50.47237 -1.03103,0.8894 -1.14773,2.1788 -1.51969,16.7909 -0.2215,8.7051 -0.26608,15.8274 -0.0989,15.8274 0.16709,0 21.04237,-11.7994 46.38946,-26.221 z m 35.00048,-33.29486 c -4.08059,-2.44614 -7.2109,-8.06318 -7.2109,-12.93932 0,-2.98649 1.20785,-5.3753 2.71783,-5.3753 0.76324,0 0.7869,0.14758 0.14721,0.91834 -1.20465,1.45159 -0.83966,6.16755 0.74547,9.62979 1.61073,3.5184 4.23569,6.38924 7.34325,8.03117 l 2.11481,1.1174 -1.74245,0.0203 c -0.95834,0.011 -2.81022,-0.61991 -4.11522,-1.40223 z m 5.27684,-1.2206 c -4.51656,-2.34427 -8.05335,-8.17366 -8.10267,-13.35497 -0.0371,-3.93358 1.23419,-5.48153 4.50273,-5.48153 6.75596,0 13.69261,13.08656 9.65654,18.21763 -1.39215,1.76977 -3.43661,1.9787 -6.0566,0.61887 z m -58.46123,59.03906 c 2.77463,-1.4155 5.58651,-4.5576 6.36307,-7.1104 0.83137,-2.7329 1.35803,-7.5864 0.79822,-7.3569 -2.98846,1.2252 -21.53234,12.3089 -21.27918,12.7186 0.40054,0.648 3.41958,2.261 5.49016,2.9332 2.09013,0.6786 6.03831,0.1365 8.62773,-1.1845 z m 9.09113,-59.19286 c 18.52833,-12.62824 34.41227,-23.48879 35.29764,-24.13461 2.39792,-1.74898 8.00574,-1.95814 11.83684,-0.44143 l 2.99178,1.18442 0.59946,-1.56613 c 1.17219,-3.06258 1.26151,-4.00352 0.67387,-7.10199 -0.82005,-4.32435 -2.52901,-7.61322 -5.83624,-11.23181 -5.05556,-5.53166 -12.53442,-8.41157 -16.99927,-6.54602 -1.33191,0.55649 -14.03325,12.05438 -33.79029,30.58879 l -31.65616,29.69714 0,7.2822 0,7.2822 1.5973,-1.0262 c 0.87845,-0.5643 16.75679,-11.3583 35.28507,-23.98657 z m 36.3061,-27.25858 c -4.62045,-2.27497 -8.67802,-8.07009 -8.70413,-12.43151 -0.016,-2.70124 0.42991,-3.85331 1.76965,-4.57028 0.98052,-0.52477 1.01458,-0.42551 0.4298,1.25197 -0.84303,2.41838 0.56043,6.9433 3.11202,10.03329 2.41814,2.92846 6.62469,5.57766 8.87448,5.58892 1.35894,0.007 1.57015,0.14062 0.90274,0.57194 -1.33088,0.86009 -4.13111,0.66517 -6.38456,-0.44433 z m 4.99539,-2.15474 c -2.79417,-0.99582 -6.96551,-5.00764 -8.49766,-8.17267 -3.70971,-7.66323 1.50832,-12.37814 8.48783,-7.66944 4.22357,2.8494 6.79962,6.80941 7.09609,10.90858 0.20367,2.81549 0.0497,3.52822 -0.98543,4.56337 -1.41311,1.41315 -2.91818,1.50445 -6.10083,0.37016 z M 183.65665,736.61214 c 12.88684,-3.27574 23.47406,-13.90433 26.71295,-26.81735 0.55763,-2.22322 0.83673,-5.4341 0.73198,-8.42194 l -0.16932,-4.82887 -35.93917,-0.14966 -35.93917,-0.14967 0.27048,6.53874 c 0.43156,10.43259 3.65656,17.72052 11.01776,24.89809 4.4637,4.35227 12.39532,8.39074 18.48027,9.40938 3.54296,0.59307 11.64665,0.33157 14.83422,-0.47872 z m 32.58685,-44.63946 c 2.96492,-2.55039 1.73502,-7.36085 -2.09722,-8.20262 -1.471,-0.32305 -1.63158,-0.63078 -1.95766,-3.75051 -0.48266,-4.61755 -2.48689,-10.4879 -4.99968,-14.64353 -2.22962,-3.68737 -9.06878,-10.94181 -10.31548,-10.94181 -0.47243,0 -0.75222,0.75599 -0.75222,2.03286 0,2.26054 -1.64553,4.35622 -3.42061,4.35622 -0.60352,0 -1.71439,-0.499 -2.46849,-1.10887 -1.17019,-0.94634 -1.4138,-1.77314 -1.66165,-5.64012 l -0.29041,-4.53124 -2.32329,-0.66342 c -1.27785,-0.36494 -3.30346,-0.84445 -4.50142,-1.06578 l -2.17807,-0.40225 0,5.12448 c 0,6.04318 -0.78068,7.70636 -3.61731,7.70636 -3.28226,0 -3.93344,-1.22533 -3.93344,-7.40143 l 0,-5.47884 -2.44084,0.41237 c -1.34254,0.22681 -3.49884,0.71758 -4.79178,1.09052 l -2.351,0.6781 -0.29036,4.79155 c -0.31059,5.12386 -0.76307,5.88236 -3.51913,5.89876 -2.26608,0.0131 -3.41923,-1.1811 -3.91578,-4.05682 l -0.4514,-2.6137 -4.704,4.69137 c -3.74514,3.73503 -5.19415,5.70395 -7.10809,9.65819 -2.20979,4.56548 -4.08071,11.06216 -4.10534,14.25607 -0.007,0.99355 -0.34808,1.30683 -1.41997,1.30683 -1.74491,0 -3.81755,2.49518 -3.81755,4.59565 0,1.86663 1.42643,4.02241 3.11145,4.70246 0.68467,0.27624 18.67668,0.51883 39.98244,0.53911 l 38.73763,0.0366 z"
       style="fill:#280b0b" />
  </g>
</svg>
