<?xml version="1.0" encoding="utf-8"?>
<!-- Generator: Adobe Illustrator 18.0.0, SVG Export Plug-In . SVG Version: 6.00 Build 0)  -->
<!DOCTYPE svg PUBLIC "-//W3C//DTD SVG 1.1//EN" "http://www.w3.org/Graphics/SVG/1.1/DTD/svg11.dtd">
<svg version="1.1" id="Слой_2" xmlns="http://www.w3.org/2000/svg" xmlns:xlink="http://www.w3.org/1999/xlink" x="0px" y="0px"
	 viewBox="536.1 -179.4 823.5 1031.9" enable-background="new 536.1 -179.4 823.5 1031.9" xml:space="preserve">
<path fill="#000000"    d="M1447.5,848.8V834H1374c-0.7-0.9-1.5-1.7-2.2-2.7
	c-1-1.5-1.6-3.2-2.6-4.6c-1-1.4-2.2-3-3.3-4.3c-2.3-2.7-5.2-4.8-7.7-7.4c-1.7-1.6-3.4-2.9-4.7-4.9c-1.3-2-2.4-4.1-3.3-6.2
	c-1.8-4.2-2.8-9-4.8-13.1c-0.9-1.8-2-3.5-3.1-5.2c-1.2-1.7-2-3.8-3.1-5.4c-1.1-1.5-2.3-3.2-3.8-4.4c-1.6-1.3-3.4-0.9-5.1-1.5
	c-2-0.7-2.9-2.9-3.9-4.5s-2.1-3.3-2.8-5.1c-0.5-1.4-0.8-2.8-1.5-4c-1.1-1.6-2.1-1.4-3.9-1.5c-0.3-2.2-2.5-4.7-3.7-6.6
	c-1.4-2.1-3.1-4-4.8-5.9c-1.5-1.7-3-3.5-4.6-5c-1.8-1.7-4-1.7-6.4-1.4c-0.8,2.6-2,1.7-4,0.5c-1.9-1.1-3-2.6-4-4.5
	c-1.8-3.5-4.3-6.8-6.6-10c-2.3-3.3-5.1-6.3-9.5-5.9c-2,0.2-4.2,0.7-6.1,1.5c-2.1,0.9-3.3,2.9-4.8,4.6c-1.5,1.8-1.6,4.1-3,5.9
	c-1.2,1.6-3.3,0.6-5.2,1.7c-1.8,1-3,3-4.7,4.2c-1.6,1.2-3.6,2-5.1,3.3c-1.3,1.1-1.6,4.3-3,4.9c-0.7,0.3-1.9-0.2-2.7,0
	c-1.1,0.3-2,1-2.9,1.6c-1.6,1.2-3.3,2.9-5.2,3.6c-2.3,0.9-2.1-1.1-3.5-2.4c-1.5-1.3-4.1-0.7-5.9-0.5c-2,0.2-4,0.6-5.9,0.7
	c-4.1,0.3-7.2,2.3-10.7,4l-4.1-11.3c2.8-2.8,4.2-4.2,4.1-8.6c0-3.7,0.6-7,1.6-10.3c7.6,0.5,5-7.3,5.3-12c0.2-2.3,1.5-4.8,1.9-7
	c0.4-2.5,0.9-4.9,1.6-7.3c1.3-4.7,2.6-9,4.3-13.9c0.8-2.1,1.9-4.3,2.6-6.4c0.7-2.5,0-4.4,0-6.9c0-3.2,2.1-6.4,2.9-9.4
	c1-3.8,0.9-6.7-0.8-10.5c-0.2-0.5-0.5-1-0.8-1.5c1.2-1.6,2.1-3.7,3.1-5.8c0.7-1.4,1.1-3.2,1.9-4.6c0.9-1.4,2.3-2.4,3.1-3.8
	c0.9-1.5,0.2-4,1-5.5c0.6-1.1,2.4-2.6,3.3-3.6c2.4-2.5,5.2-4.8,7.2-7.8c2.5-3.6,3.3-6.8,4.4-10.8c0.9-3.2,2.6-6.4,3.7-9.5
	c1.7-4.6,0.2-5.5-1.7-9.5c-1.4-2.9-2.2-5.9-4.2-8.7c-1.9-2.6-5-5.9-3.3-9.4c2.8-0.6,2.2,4.1,3.5,5.3c2.5,2.3,2.7-0.9,4.8-2
	c1.4-0.7,3.2,0.2,4.5-0.3c1.2-0.5,0.9-1.8,2.1-2.4c2.7-1.2,3.6,4,5.2,2.3c2.8-2.9,3-5.5,4.9-8.2c5.3,2.5,9.8,9.1,15.4,10.6
	c0.2-2.8-0.1-5.2,1.2-7.8c1-2,2.4-3.9,3.5-5.9c2.4-4.7,4.3-8,4.3-13.5c0-5.6,0.2-10.3-3.1-14.7c-10-13.2-21.2-17.2-34.2-11.1
	c-3.2,1.5-6.7,3.5-9.4,5.9c-0.7,0.7-0.9,1.7-1.7,2.2c-0.9,0.6-2,0.4-2.6,0.8c-1.2,0.8-2.5,2.6-3,3.9c-1.5,0-5.1-4.3-6.2-5.5
	c-1.9-1.9-4.5-3.1-6.2-5.2c-3.3-4.2-2-12.2-2.4-17.4c-0.6,0.1-1.7-0.3-2.3-0.2c-0.8-3.4-5.1-6.7-7.1-9.3c-1.3-1.7-2.7-2.7-4.5-3.9
	c-1.6-1-3.2-3.1-5-4c-1.8-0.9-4.6-0.2-6.2-1.2c-1.7-1-2.5-3.5-3.4-5c-1.9-3-4.5-5.8-6.9-8.4c-4.8-5.2-11.4-7.5-17.3-10.9
	c-5.7-3.3-12.4-5.4-18.5-8.2c-5.6-2.6-12.7-5.9-18.7-6.6c-3.1-0.3-7,1.9-9.6,3.4c-2.8,1.6-6.5,4.7-9.5,2.4c2.5-2,1.4-6.8,3.5-7.2
	c1.8-0.3,0.9-2.7,1.2-3c1.7-1.9-0.3-2.9,0.1-5.4c0.3-1.7,5.1,0.2,4.9-2.1c-0.3-2.3-2-4.5-2.4-6.9c-0.5-3.1,1.4-7.1,1.4-7.1
	s12-4.1,11.4-7.7c-5.6-3.1-7.7-7-11.4-11.9c-10.8-14.2-29.2-10.5-32.7-9.1c-2.5,1-4.7,2.4-6.9,3.9c0.3-3.9-0.8-8.1-1.8-11.7
	c-1.9-6.9-3.4-15.2-7.7-21.2c-1.9-2.7-3.9-5.3-5.7-8.2c-0.7-1.2-1.3-2.5-1.8-3.8c1.6-2.2,1.5-5.9,1.2-7.9c-0.5-3-0.5-8.4-2.6-10.8
	c-2-2.3-6.3-2.5-8.3-4.6c-1.8-1.9-3.4-7.7-7.1-4.1c-0.4,0.4-0.5,0.7-0.7,1.1l-130-304.4l19.1,0.5c0,0,4.1,7.1,7.4,17.1
	c3.3,10,19.3,22.3,33.8,30.1s37.9,10.4,37.9,10.4s-1.1,4.1-4.8,9.3c-3.7,5.2-1.9,10.4-1.9,10.4s3.3,1.1,6.7,0s6.7,2.6,6.7,2.6
	s2.6,0.4,5.2-3.7c2.6-4.1,18.9-10.8,18.9-10.8s28.2,5.9,37.5,7.1c9.3,1.2,27.1-0.7,27.1-0.7l4.8,4.5c0,0,5.2-5.9,7.4-11.1
	c2.2-5.2-2.2-15.6-16.3-27.1s-23-11.5-23-11.5s-7.8-8.2-14.5-14.1c-6.7-5.9-20.8-8.2-20.8-8.2s0-7.8-9.7-11.9
	C1025.4,9,1010.6-6.4,998-16.8s-32.3-21.2-46.8-29s-29.7-16.3-45.3-29c-10.7-8.6-33-29.1-46.1-41.2L838-167.1l-8.5,3L1028,302.4
	c-4.3,2.6-8.3,9.6-10.8,13c-1.3,1.8-4.1,7.2-6.7,5c-2.1-1.8-0.1-7.5-1.4-9.9c-4.6-0.8-5.5,12.4-5.9,15.3c-0.3,2.5-2.6,11.9-2.8,14
	c-1.6,13.7-9,12.2-9,12.2s-3.9-0.7-4.6-0.1c-2.6,2.1-3.7,6.7-4.9,9.4c-1.7,3.8-5.5,6.6-7.9,9.9c-2,2.8-6,12.6-7.4,14.3
	c-0.9,1.1-2.1,1.9-3,3c-4.4,5-7,10.8-10.9,15.8c-1.4,1.8-3.4,7.1-5.4,7.9c-2.3,0.9-4.9-3.4-5.7-5.7c0.7-1.4,1.6-2.9,1.3-4.5
	c-1.9-0.4-4.6-1-6-1.9c-2.4-1.6-1.8-2.1-0.9-5c1.1-3.5,4.3-10.1,3.4-13.8c-2.6-1.1-6.2-0.7-8.8-1.1c-2.8-0.5-5.8-0.6-8.5-1.4
	c-27-8.2-34.4,13.7-35.5,16.4c-0.4,1.1-0.7,2.2-0.9,3.4c-3.9-0.2-4.1,0.8-4.7,4.4c-0.4,2.5-3,17.2-3.7,23.7
	c-2.7,0.9-2.8,0.2-3.3,3.5c-0.3,1.9-1.4,6.5,0.9,7c0.1,1.3-0.9,4.2-1.4,5.4c-0.9,2-0.4,1.2-2.4,2.1c-1.2,2.9-2.5,5.8-2.9,8.8
	c-0.6,3.5,0.2,6.9-1,10c-1.1,3-8.4,25.2-9,28.6c-0.5,2.8-2.7,4.6-4.3,7c-1.4,2-2.2,5.7-5.1,6.3c-1.2,0.3-2.8-1-4.3-0.4
	c-1,0.4-2.1,1.8-2.9,2.5c-2.4,1.9-4.2,4.2-6.6,5.8c-2.9,2-6,2.8-8.9,4.5c-5.8,3.3-11.2,8.2-16.2,12.5c-2.5,2.1-5.1,4.8-7,7.3
	c-1.2,1.5-2.5,2.9-3.5,4c-1.1,1.2-2,1.7-2,4c0.1,2.5,1.7,3.7,2,6c0.1,1.1-0.4,4-0.5,5.4c-0.2,3.2-1.5,8.2-0.6,11
	c0.3,1.1,1.2,1.7,1.6,2.9c0.2,0.7,0.4,1.7,0.5,2.5c0.3,1.9,1,3.6,1,5.5c-0.1,4.3-3.5,6.2-5.8,9.4c-2.1,3-3.8,5-6.4,7.5
	c-2.8,2.7-1.8,6.2-4,9.3c-1.9,2.7-5.2,4.4-6.7,7.3c-1.7,3.2-1.2,5.5-2.6,8.7c-2.8,6.5-9.3,12.2-14.5,16.2c-2.6,2-5.3,4.1-8,5.9
	c-3.2,2.1-15.1,6.3-19.9,8.6c-9.6,4.6-18,22.1-20.8,24.8c-5.4,5.1-10.6,10.6-16.1,15.6c-2.9,2.6-6,5.3-9,7.8
	c-1.3,1.1-3.5,2.1-4.3,3.6c-0.7,1.2,0.3,3.2,0.3,3.2s-9.2,3.3-10.9,3c-3.8-0.6-7.7,2.9-9.2,4.7c0.2,2-2.2,4.3-4,4.9
	c-1,3.2,6.3,13.3,8.1,15.8c2.9,4,4.8-0.7,6.7,3.7c1.7,4,3.7,10.2,5.4,14.1c0.7,1.6,1.3,3.8,2.4,5.2c-2.8-0.2-5.6-0.4-7.9-0.2
	c-2.8,0.3-2.6,0.9-2.5,3c0,0.9,1.2,0.9,1,2c-0.2,1-1.4,1-1.9,1.6c-2.5,3-3.3,6.1-7,8.2c-3.4,1.9-7.1,3.6-10.5,4.5
	c-1.6,0.4-3.7,1.3-5.3,1.1c-2-0.2-2.2-1.2-3.8-2.1c-3.3-1.8-7.2-1.3-11-1.3c-4.5,0-6.1,2.7-9.9,3.5c-3.8,0.7-7-2-10.9-1
	c-3.8,1-8.4,2.4-11.7,4.3c1.6,1.6,3,7.1-0.6,7c-0.5-1.1-1.2-2.2-1.7-3.3c-1.4,0.8-4.3,0.6-5.9,0.8c-2.3,0.4-4.5,1.1-6.8,1.7
	c-4.5,1.2-8.9,1.1-13.4,2.7c-7.8,2.8-15.6,6.3-22.8,10.4c-1.7,1-3.3,2-5,3.1c-2.4,1.6-2.4,0.4-4.9,1.1c-0.7,0.2-0.8,1.5-1.6,1.9
	c-0.5,0.3-2.3,0.3-3,0.5c-1.5,0.4-3.2,1.2-4.5,1.8c-2,0.9-3.8,2.1-5.8,2.6c-1.6,0.4-3.6-0.1-4.9,1c-3.6,2.9,0.9,6.7-0.6,10.3
	c-0.9,2.2-4.9,4.5-6.9,5.9c-1.6,1.2-5.5,3-7.1,5.1H395.5v14.8h-69.8V1025h1188.8V848.8H1447.5z M773.1,753.7c-0.3,0.1-0.7,0.2-1,0.3
	c0-0.3,0-0.7,0-1.1c0-1.9-0.5-4.6,0.5-6.2c2.3,2,5.5,2.5,8.4,2.8c2.1,0.2,3.7,0.7,5.2,1.4C781.9,751.8,777.4,752.7,773.1,753.7z
	 M793.5,766.1c-1.6-1.9-0.4-6.4-0.6-8.8c-0.1-1.2-0.4-2.6-0.6-4c2,0.7,4,1.3,5.9,2.2c3.1,1.4,5.1,0.4,8,1.2
	C801.7,759.3,798.2,763.8,793.5,766.1z M851.3,624.1c-1.9,2.4-2.3,5.6-3.6,8.3c-1.2,2.6-2.6,5.1-3.9,7.5c-1.4,2.6-2.2,6-4.3,7.8
	c-1.4,1.2-2,1-3,2.6c-0.9,1.5-0.5,3.6-1.5,4.8c-1.6,2-6.8,0.7-5.4,5c0.3,0.1,0.6,0.1,0.9,0.2c-4.7,5.1-12.7,7.4-18.8,10.7
	c-11,6-20,17.5-27.6,27.5c-4.4,5.9-9.6,10.8-14.4,16.3c-2.3,2.7-4,5-6.9,6.9c-1.3,0.8-2.8,2-4.2,2.7c-1.8,1-3.6,0.8-5.3,1.7
	c0.4,1,1.3,1.9,1.9,2.8c-4-0.2-8.4,1.1-11.7,3.2c-1.9,1.1-2.2,2.5-3.4,4c-1.4,1.7-3.5,2.1-5,3.5c-2,1.9-1.3,2.8,0.2,5.3
	c0.9,1.5,8.3,9.3,10.1,12.3c1.7-1.5,3.1,0.3,4.1,2.6c-1.2,0.4-2.3,0.8-3.7,1.5c-3.3,1.6-4.8,1.8-8.3,1.3c-3.1-0.5-6.3-0.6-9.5-0.9
	c-4.4-0.3-4.4-1.6-6-4.9c-4.1-0.9-5,6.4-9.2,3.3c-2.1-1.5-0.8-2.5-3.9-2.8c0-1.9-0.8-3.7-2.5-5.5c-2.8-2.9-7.2-2.7-10.2-4.8
	c-5.9-4.1,0.4-19,4.2-22.8c5.2,1.8,9,8.2,14.6,9.3c1.5-1.1,1.6-2.6,2.5-4c0.7-1.1,1.8-2.3,2.7-3.2c2.3-2.3,19.5-18.2,22.1-20.5
	c2.7-2.5,4.3-5.4,7.2-7.7c2.4-2,21.4-18.3,21.2-21.3c2.8-1,27.8-20.9,33.6-24.9c3-2.1,5.1-4.6,7.6-7.2c2.5-2.7,5.2-4.3,8.4-6.4
	c5.3-3.6,10.1-9.1,14.4-13.9c2.3-2.5,9.6-13.5,12.2-15.5c1.8,0.7,5.6,4.4,7.9,4.5c4.1,0.2,5.3,2.1,2.6,5.5
	C855.7,620.8,852.9,622.1,851.3,624.1z M859.2,755.2c-2-3.7-5.9-8.4-4.3-12.2c5.8-0.8,4.1,5.6,6.7,9.5c0.5,0.7,1,1.3,1.5,1.9
	C861.9,754.5,860.5,754.8,859.2,755.2z M902.2,433.5c-2.5,1.4-5.2,3-7.8,4.1c-4.9,2.1-9.4,2.9-13.9,6.3c-0.1-3.8,4.3-30.5,4.5-34.5
	c0.1-2.2,0.5-4.3,0.8-6.4c0.5,4.4,2.5,8.7,4.7,11.9c1.9,2.8,3.8,4.8,6.3,7.1c3,2.7,3.5,4.5,3.2,8.2
	C903.3,430.4,906.9,430.9,902.2,433.5z M1182.4,689c1.3-0.7,2.7-1.4,4-2c1.6-0.7,4.2-3.3,5.9-3.4c-0.5,5.8,2.1,11.5,2.1,17.3
	c0,3,0.1,5.8-1,8.4c-0.5,1.3-1.6,2.2-2.1,3.4c-0.1,0.2-0.1,0.3-0.2,0.4L1182.4,689z M1193.3,609.8c2.4,0.4,4.3,0.8,6.6,0.6
	c2.3-0.2,4.6-1.2,6.7,0c0.3,2.6-1.3,5.3-1.9,7.8c-0.5,2.1-0.9,4.3-1.4,6.4c-2.6-1.9-5.4-3.6-8-5.4c-5.3-3.8-10.9-8.1-16.7-10.9
	C1183.5,608.9,1188.7,609,1193.3,609.8z M1082.8,560.4c-2.5,3.7-7.2,6.8-10.1,10.5c-2.1,2.6-4.2,5.3-6.3,7.9c-0.6-0.5-1.2-1-1.8-1.6
	c-1.4-1.5-2.2-2.8-3.8-4.1c-1.1-0.9-2.4-1.3-3.4-2.4c4.1-2.2,8.5-3.6,12.8-5.3C1073.8,564,1079.1,560.3,1082.8,560.4z M1047.7,377.1
	c-2.3,0.4-4.6,1.5-6.8,1.5c-0.1-2.1-0.1-4.3-1.4-6c-1.7-2.2-3-1.1-1.7-3.9c1.5-3.5,4.5-7.5,7.4-9.9c0.3-0.3,0.6-0.5,1-0.8
	c0,0.2,0.1,0.3,0.1,0.5c0.4,2,0.6,3.9,1,5.9C1048,368.3,1048.1,372.9,1047.7,377.1z M1035.3,319.5c-2.5,2.9-5.8,7-9.2,6.1
	c-0.2-3.5,4.3-6.3,7.9-9.1L1035.3,319.5z M1037.3,324.2l1.7,3.9c-1,0.3-2,0.7-3,1c-1.2,0.4-4.3,3.1-5.4,3
	C1026.4,331.9,1033.9,326.6,1037.3,324.2z M1065.5,433c-0.8,1.5,1,5.4,2.4,6.1c-2.3-1.1-5.8-0.1-7.7,1.6c1,1,1.1,2.3-0.5,2.3
	c0.2-4.5,5.4-10.1,8-13.7c1.5-2.1,2.8-4.2,4.1-6.3c0.3,2.7,0.9,5.3,1.7,7.6C1071.3,430.6,1066.8,430.6,1065.5,433z M1029.7,306.3
	l2.3,5.4c-3.3,3.7-6.7,9.2-8.3,8.9C1023.2,314.7,1027.8,311.1,1029.7,306.3z M1016.7,360c2.8-2.4,5.5-4.9,8.3-7.2
	c2.1-1.7,5.7-3.3,7.3-5.4c1.5-1.9,3.2-7.7,1.5-9.7c-2.3,1-4.5,5.2-5.8,7.4c-1,1.6-1.4,2.6-4.4,1.9c1.6-2.4,1.3-4.1,3.4-6.2
	c1.7-1.6,3.6-2.9,5.4-4.2c1.7-1.2,5.5-2.8,8-4.8l4.5,10.5c-2.3,2.2-5,4-7.1,6.1c-1.9,2-7.9,7.5-7.9,7.1c-3,0.3-4.7-1.6-7,1.3
	c-1.5,1.9-2.1,5.2-2.9,7.5c-3.1,0.3-6.6,2.7-9.7,2C1010.7,363.7,1014.9,361.6,1016.7,360z M1017.7,656.4c-0.6,1.2-0.1,2.7-1.6,3.4
	c-1,0.5-2.8-0.7-4.1-0.1c-2.1,0.9-3.2,2.7-5.8,3.7c-6.9,2.5-14.7,4.3-20.9,7.7c-0.5,0.3-1,0.6-1.5,1c1-1.5,1.9-3.1,2.7-4.7
	c1.6-3.1,3.3-6.5,3.3-10c0-2.9-0.8-8.2-3.4-10c1.5-3.5,4.5-7.1,6.7-10.4c2.1-3.1,3.6-6.4,5.5-9.3c1.3,5.4,5.8,6,9.4,10
	c1.6,1.7,2.9,4.2,4.7,5.7c1.8,1.6,4.2,2.1,6.3,3c2.5,1,6.3,3,3.8,5.9C1021.6,653.9,1019,654,1017.7,656.4z M1112.7,671.3
	c-1.1,0.2-3.8,5.5-5.9,5.9c-2.4,0.4-4.8-1.4-7.4-1c-1.8,0.3-4.4,1.4-5.9,2.5s-2.3,2.8-3.9,3.5c-2.5,1.1-4.8-0.7-6,2.4
	c-0.8,2.3,0.7,4.9,1.6,6.8c1,2,1.9,4.3,3.2,6.2c1.2,1.8,3.2,3.1,3.7,5.2c1.6,0.4,3-0.5,4.3-0.8c2.2,5.4,4.6,10.7,6.9,16.1
	c-1-0.6-1.9-1.2-2.8-1.8c-0.8-0.6-1.6-1.2-2.5-1.5c-0.9-0.4-2-0.4-2.9-1c-1.4-0.9-2.3-2.9-3.1-4.4c-0.3-0.6-0.6-2.1-1.1-2.5
	c-0.8-0.5-1.7,0.1-2.6,0.4c-4.5,2.1-8.4,5.2-12.6,7.7c-4.1,2.4-8.1,5.4-12.4,7.3c-2.2,0.9-4.3,1.8-6.4,2.9c-1.1,0.5-2.1,1-3.2,1.5
	c-0.9,0.4-2.5,0.8-3.2,1.3c-0.1,0.1-0.3,0.2-0.4,0.3c0.1,0,0.3,0,0.4,0l-7.4,3.2c-1.8,0-3.6,0.2-5.4,0.4c0-0.1,0-0.1,0-0.1
	c-2.2-6.6-10.6-8.4-15.8-11c-0.9-3.4,4.9-1.9,6.7-4c1.4-1.6,2.1-4.4,3.2-6.3c2.8-4.6,7.8-7.4,11.4-11.3c4.5-5,9.4-9.4,13.9-14.4
	c4.8-5.4,11.1-8.6,15.8-14c4.9-5.5,9.1-11,14.4-16.2c4.7-4.7,9.5-9.3,13.8-14.3c1.8-2,2.2-4.5,2-7.1c0.1,0.1,0.2,0.1,0.3,0.2
	c1.9,1.2,2.2,2.9,3.7,4.2c1.7,1.5,3.8,1.3,5.8,1.6c8.2,1.2,16.1,3,23.8,6.1c3.4,1.4,6.8,2,10.4,2.9c2.1,0.5,4.3,0.5,6.5,1
	c1.8,0.4,3.5,1.3,5.4,1.5c0.1,2.7-9.5,6.5-11.8,7.8c-3.7,2.1-7.4,3.9-11.4,5.6c-2.5,1.1-4.8,0.8-7.3,2c-1.8,0.9-4.2,1-5.9,2
	c-2.2,1.2-3.2,4.3-6.1,4.4C1115,672.2,1114,671,1112.7,671.3z M1190.4,756.7c-0.5-0.4-0.4-2.1-0.8-2.7c-0.8-1.4-2.3-2.8-4-2.7
	c-1.4,0-2.9,1-4.2,1.7c-1.6,0.9-3.5,1.5-4.9,2.6c0.3-0.8,0.1-1.9,0.3-2.8c0.3-1.1,0.7-2,0.6-3.2c-0.2-1.7-1.5-4.2-3.2-5
	c-1.7-0.7-4.1-0.1-5.9,0c-0.9,0.1-2.3,0.2-3.2,0c-1.1-0.2-1.4-0.7-2.4-1.3c-0.7-0.5-1.6-0.7-2.3-1.2c-0.8-0.6-1.3-1.6-2.2-2.2
	c-1.1-0.8-4.6-1.8-5-3.2c-0.2-0.6,0.6-1.7,0.5-2.5s-0.7-2-0.8-2.9c-0.3-1.7-0.7-2.9-2.2-4.1c-3.3-2.7-7.7-0.5-11.4-2.2
	c-1.1-0.5-2-1.4-3.1-1.9c-0.1-0.6-0.3-1.2-0.5-1.9c-0.2-0.5-1.1-0.9-1.4-1.6c-0.3-0.7,0.2-1.6-0.1-2.4c-1-2.8-3.9-4-6.3-4.9
	c-3.5-1.3-13.3-4.8-8-10c1.6,3.7,7.9,5.5,11.5,5.4c1.5,0,5.7-0.7,6.8-1.6c1.2-1,1-3.8,1.7-5.2c2.7-0.3,5.2,0.7,7.9,0.4
	c2-0.2,4.4-1.1,6.4-1.5c4.5-1,9.3-3,13.4-4.9c1.6-0.7,3.2-1.3,4.9-1.8l12.9,36.1c-0.4,0.8-0.8,1.7-1.3,2.5s-1.9,2.1-2,3
	c-0.3,2.3,1.1,1.4,1.5,2.7c0.5,1.7-1.5,5.5,1.8,6.2c-0.5,1.7-2.3,5.6,1.5,4.9c0.7,3.6,3.2,3.2,6,1.5l2.3,6.5
	c-0.7,0.1-1.4,0.2-2.1,0.3C1192.3,756.8,1191,757.3,1190.4,756.7z"/>
</svg>
