<?xml version="1.0" encoding="UTF-8" standalone="no"?>
<!-- Created with Inkscape (http://www.inkscape.org/) -->

<svg
   xmlns:dc="http://purl.org/dc/elements/1.1/"
   xmlns:cc="http://creativecommons.org/ns#"
   xmlns:rdf="http://www.w3.org/1999/02/22-rdf-syntax-ns#"
   xmlns:svg="http://www.w3.org/2000/svg"
   xmlns="http://www.w3.org/2000/svg"
   xmlns:sodipodi="http://sodipodi.sourceforge.net/DTD/sodipodi-0.dtd"
   xmlns:inkscape="http://www.inkscape.org/namespaces/inkscape"
   width="48px"
   height="48px"
   id="svg3366"
   version="1.1"
   inkscape:version="0.48.2 r9819"
   sodipodi:docname="Új dokumentum 3">
  <defs
     id="defs3368" />
  <sodipodi:namedview
     id="base"
     pagecolor="#ffffff"
     bordercolor="#666666"
     borderopacity="1.0"
     inkscape:pageopacity="0.0"
     inkscape:pageshadow="2"
     inkscape:zoom="7"
     inkscape:cx="0.42857143"
     inkscape:cy="25.041285"
     inkscape:current-layer="layer1"
     showgrid="true"
     inkscape:grid-bbox="true"
     inkscape:document-units="px"
     inkscape:window-width="1366"
     inkscape:window-height="706"
     inkscape:window-x="-8"
     inkscape:window-y="-8"
     inkscape:window-maximized="1" />
  <metadata
     id="metadata3371">
    <rdf:RDF>
      <cc:Work
         rdf:about="">
        <dc:format>image/svg+xml</dc:format>
        <dc:type
           rdf:resource="http://purl.org/dc/dcmitype/StillImage" />
        <dc:title></dc:title>
      </cc:Work>
    </rdf:RDF>
  </metadata>
  <g
     id="layer1"
     inkscape:label="Layer 1"
     inkscape:groupmode="layer">
    <g
       id="g24"
       transform="matrix(1.25,0,0,-1.25,15.142857,53.174554)" />
    <g
       id="g4164">
      <path
         inkscape:connector-curvature="0"
         id="path26"
         style="fill:#ff0000;fill-opacity:1;fill-rule:nonzero;stroke:none"
         d="m 7.0857144,4.1396432 c 10.6053146,0 19.1999996,8.5955898 19.1999996,19.1994178 0,10.603828 -8.594685,19.200582 -19.1999996,19.200582 -10.6053149,0 -19.2000004,-8.596754 -19.2000004,-19.200582 0,-10.603828 8.5946855,-19.1994178 19.2000004,-19.1994178"
         transform="matrix(1.25,0,0,-1.25,15.142857,53.174554)" />
      <g
         transform="matrix(1.456134,0,0,-1.4560898,24.088096,9.586313)"
         id="g184">
        <path
           inkscape:connector-curvature="0"
           id="path186"
           style="fill:#000000;fill-opacity:1;fill-rule:nonzero;stroke:none"
           d="m 0,0 c 5.451,0 9.883,-4.434 9.883,-9.885 0,-5.451 -4.432,-9.885 -9.883,-9.885 -5.453,0 -9.885,4.434 -9.885,9.885 C -9.885,-4.434 -5.453,0 0,0 m 0,3.295 c -7.281,0 -13.182,-5.9 -13.182,-13.18 0,-7.28 5.901,-13.18 13.182,-13.18 7.279,0 13.178,5.9 13.178,13.18 0,7.28 -5.899,13.18 -13.178,13.18" />
      </g>
      <g
         transform="matrix(1.456134,0,0,-1.4560898,17.174372,19.915523)"
         id="g188">
        <path
           inkscape:connector-curvature="0"
           id="path190"
           style="fill:#000000;fill-opacity:1;fill-rule:nonzero;stroke:none"
           d="m 0,0 -0.688,0 c -0.677,0 -1.015,0.513 -1.015,1.014 0,0.5 0.338,1.014 1.015,1.014 l 1.784,0 c 0.5,0 1.095,-0.189 1.095,-1.095 l 0,-7.453 C 2.191,-7.292 1.732,-7.683 1.096,-7.683 0.461,-7.683 0,-7.292 0,-6.52 L 0,0 z" />
      </g>
      <g
         transform="matrix(1.456134,0,0,-1.4560898,31.752748,20.585178)"
         id="g192">
        <path
           inkscape:connector-curvature="0"
           id="path194"
           style="fill:#000000;fill-opacity:1;fill-rule:nonzero;stroke:none"
           d="M 0,0 C 0,-0.947 -0.568,-1.65 -0.893,-1.908 0,-2.449 0.404,-3.341 0.404,-4.22 c 0,-1.758 -1.392,-3.139 -3.529,-3.139 -2.137,0 -3.529,1.381 -3.529,3.139 0,0.879 0.404,1.771 1.297,2.312 C -5.682,-1.65 -6.25,-0.947 -6.25,0 c 0,1.785 1.447,2.705 3.125,2.705 C -1.447,2.705 0,1.785 0,0 m -3.125,-5.248 c 0.703,0 1.258,0.553 1.258,1.258 0,0.703 -0.555,1.257 -1.258,1.257 -0.703,0 -1.258,-0.554 -1.258,-1.257 0,-0.705 0.555,-1.258 1.258,-1.258 m 0,4.139 c 0.5,0 0.934,0.432 0.934,0.933 0,0.501 -0.434,0.933 -0.934,0.933 -0.5,0 -0.934,-0.432 -0.934,-0.933 0,-0.501 0.434,-0.933 0.934,-0.933" />
      </g>
    </g>
  </g>
</svg>
