<?xml version="1.0" encoding="UTF-8" standalone="no"?>
<!-- Created with Inkscape (http://www.inkscape.org/) -->

<svg
   xmlns:dc="http://purl.org/dc/elements/1.1/"
   xmlns:cc="http://creativecommons.org/ns#"
   xmlns:rdf="http://www.w3.org/1999/02/22-rdf-syntax-ns#"
   xmlns:svg="http://www.w3.org/2000/svg"
   xmlns="http://www.w3.org/2000/svg"
   xmlns:sodipodi="http://sodipodi.sourceforge.net/DTD/sodipodi-0.dtd"
   xmlns:inkscape="http://www.inkscape.org/namespaces/inkscape"
   version="1.1"
   width="64.350304"
   height="91.480705"
   id="svg13203"
   inkscape:version="0.48.4 r9939"
   sodipodi:docname="born.svg">
  <sodipodi:namedview
     pagecolor="#ffffff"
     bordercolor="#666666"
     borderopacity="1"
     objecttolerance="10"
     gridtolerance="10"
     guidetolerance="10"
     inkscape:pageopacity="0"
     inkscape:pageshadow="2"
     inkscape:window-width="640"
     inkscape:window-height="480"
     id="namedview14"
     showgrid="false"
     inkscape:zoom="2.579779"
     inkscape:cx="32.175152"
     inkscape:cy="45.740353"
     inkscape:window-x="61"
     inkscape:window-y="24"
     inkscape:window-maximized="0"
     inkscape:current-layer="svg13203" />
  <defs
     id="defs13205" />
  <metadata
     id="metadata13208">
    <rdf:RDF>
      <cc:Work
         rdf:about="">
        <dc:format>image/svg+xml</dc:format>
        <dc:type
           rdf:resource="http://purl.org/dc/dcmitype/StillImage" />
        <dc:title />
      </cc:Work>
    </rdf:RDF>
  </metadata>
  <g
     transform="translate(-164.96771,-160.90754)"
     id="layer1"
     style="fill:#2b0000">
    <g
       transform="matrix(1.25,0,0,-1.25,197.14274,186.75129)"
       id="g10452"
       style="fill:#2b0000">
      <path
         d="m 0,0 c 5.711,0 10.337,4.63 10.337,10.339 0,5.709 -4.626,10.336 -10.337,10.336 -5.708,0 -10.336,-4.627 -10.336,-10.336 C -10.336,4.63 -5.708,0 0,0"
         id="path10454"
         style="fill:#2b0000;fill-opacity:1;fill-rule:nonzero;stroke:none" />
    </g>
    <g
       transform="matrix(1.25,0,0,-1.25,197.12025,213.76417)"
       id="g10456"
       style="fill:#2b0000">
      <path
         d="m 0,0 -10.925,0 0,7.891 -8.358,-8.411 c -3.776,-3.777 -8.892,1.065 -5.112,4.847 l 13.837,13.865 c 1.123,1.113 2.351,1.822 4.299,1.822 l 6.259,0 0.011,0 6.141,0 c 1.947,0 3.266,-0.686 4.418,-1.822 l 13.979,-14 c 3.6,-3.601 -1.656,-8.489 -5.108,-4.852 L 10.864,7.934 10.864,0 0.011,0 0,0 z"
         id="path10458"
         style="fill:#2b0000;fill-opacity:1;fill-rule:nonzero;stroke:none" />
    </g>
    <g
       transform="matrix(1.25,0,0,-1.25,210.64199,218.87604)"
       id="g10460"
       style="fill:#2b0000">
      <path
         d="m 0,0 -8.213,-8.214 6.03,-6.018 -6.178,-6.179 c -3.645,-3.646 1.383,-8.86 5.158,-5.091 l 9.768,10.16 c 2.096,2.14 2.677,6.093 0.429,8.341 C 6.986,-6.994 0,0 0,0"
         id="path10462"
         style="fill:#2b0000;fill-opacity:1;fill-rule:nonzero;stroke:none" />
    </g>
    <g
       transform="matrix(1.25,0,0,-1.25,183.46774,218.87604)"
       id="g10464"
       style="fill:#2b0000">
      <path
         d="m 0,0 8.213,-8.214 -6.032,-6.018 6.179,-6.179 c 3.646,-3.646 -1.386,-8.86 -5.157,-5.091 l -9.771,10.16 c -2.096,2.14 -2.675,6.093 -0.427,8.341 C -6.989,-6.994 0,0 0,0"
         id="path10466"
         style="fill:#2b0000;fill-opacity:1;fill-rule:nonzero;stroke:none" />
    </g>
  </g>
</svg>
