<?xml version="1.0" encoding="UTF-8" standalone="no"?>
<svg xmlns="http://www.w3.org/2000/svg" width="538" height="600" viewBox="0 0 538 600">
<title>Man and woman (heterosexual) icon</title>
<g transform="translate(3,600)scale(1.25,-1.25)">
  <circle cx="114.141" cy="421.263" r="36.305"/>
  <circle cx="320.524" cy="430.731" r="37.2365"/>
  <path
     d="m 109.114,154.839 0,-126.2304 c -0.19,-22.93453 -34.3281,-22.93453 -34.6296,0 l 0,126.2304 -44.6836,0 48.0349,168.679 -7.8198,0 -27.927,-96.069 C 35.0288,206.202 6.29761,214.804 13.0444,237.503 L 44.323,341.392 c 3.5969,11.93 18.6331,32.997 44.6836,33.512 l 50.2694,0 c 25.3,-0.515 40.398,-21.761 44.683,-33.512 l 42.15062,-107.36792 c 6.345,-22.587 -22.159,-31.859 -29.045,-10.054 L 158.266,323.518 l -8.937,0 49.152,-168.679 -45.8,0 0,-126.2304 c 0.357,-22.93453 -33.647,-22.82198 -33.513,0 l 0,126.2304 z"/>
  <path
     d="m 407,219 0,115 c 0,24 -19,49 -48,49 l -74,0 c -24,0 -34,-13 -43,-40 L 197.86784,232.69541 c -7,-21 23,-31 30,-10 L 270,325 l 4,0 0,-291 c 0,-31 43,-30 43,0 l 0,169 6,0 0,-169 c 1,-30 44,-31 44,0 l 0,291 8,0 0,-106 c 0,-22 32,-22 32,0 z"/>
</g>
</svg>